# xmcd
#
# Track frame offsets: 
#        150
#        39549
#        62765
#        83806
#        122261
#        164256
#        192153
#
# Disc length: 3141 seconds
#
# Revision: 0
# Processed by: cddbd v1.5.2PL0 Copyright (c) Steve Scherf et al.
# Submitted via: ExactAudioCopy v0.99pb4
#
DISCID=500c4307
DTITLE=Chris Rea - Live in Oxford 2008 CD2
DYEAR=2008
DGENRE=Blues
TTITLE0=Stony Road
TTITLE1=Looking For The Summer
TTITLE2=Shadow Of A Fool
TTITLE3=Stainsby Girls
TTITLE4=The Road To Hell
TTITLE5=On The Beach
TTITLE6=Let´s Dance
EXTD=
EXTT0=
EXTT1=
EXTT2=
EXTT3=
EXTT4=
EXTT5=
EXTT6=
PLAYORDER=
